<?xml version="1.0" encoding="UTF-8"?>
<svg id="Layer_1" xmlns="http://www.w3.org/2000/svg" version="1.1" viewBox="0 0 2400 2800">
  <!-- Generator: Adobe Illustrator 30.2.1, SVG Export Plug-In . SVG Version: 2.1.1 Build 1)  -->
  <path d="M2041.53,575.6c-148.25-96.66-255.24-251.32-288.62-431.59-7.21-38.96-11.17-79.04-11.17-120.06h-473.15l-.76,1896.2c-7.96,212.34-182.72,382.77-396.96,382.77-66.59,0-129.29-16.65-184.49-45.7-126.6-66.62-213.23-199.31-213.23-352.03,0-219.31,178.43-397.74,397.73-397.74,40.94,0,80.21,6.75,117.36,18.39v-483.03c-38.44-5.23-77.5-8.5-117.36-8.5C390.66,1034.3,0,1424.98,0,1905.19c0,294.63,147.2,555.37,371.78,713.03,141.45,99.31,313.51,157.83,499.09,157.83,480.2,0,870.87-390.66,870.87-870.87v-961.53c185.57,133.2,412.93,211.68,658.26,211.68v-473.14c-132.15,0-255.24-39.29-358.47-106.6Z"/>
</svg>