<?xml version="1.0" encoding="UTF-8"?>
<svg id="Layer_1" xmlns="http://www.w3.org/2000/svg" version="1.1" viewBox="0 0 2400 2800">
  <!-- Generator: Adobe Illustrator 30.2.1, SVG Export Plug-In . SVG Version: 2.1.1 Build 1)  -->
  <defs>
    <style>
      .st0 {
        fill: #212121;
      }
    </style>
  </defs>
  <path class="st0" d="M2349.17,822.35c-28.06-103.43-106.94-184.08-212.13-212.13-185.83-50.84-937.91-50.84-937.91-50.84,0,0-750.33,0-936.16,50.84-103.44,28.05-184.08,108.7-213.88,212.13C0,1008.18,0,1399.12,0,1399.12c0,0,0,390.94,49.09,578.53,29.8,101.68,110.45,184.07,213.88,212.12,185.83,50.84,936.16,50.84,936.16,50.84,0,0,752.08,0,937.91-50.84,105.18-28.05,184.07-110.45,212.13-212.12,50.83-187.59,50.83-578.53,50.83-578.53,0,0,0-390.94-50.83-576.77ZM960.7,1760.26v-720.52l622.36,359.39-622.36,361.14Z"/>
</svg>